<svg width="18" height="19" viewBox="0 0 18 19" fill="none" xmlns="http://www.w3.org/2000/svg">
<path d="M10.5747 2.06091C10.3197 2.06091 10.0752 1.95235 9.8949 1.7591C9.71462 1.56585 9.61333 1.30375 9.61333 1.03046C9.61333 0.757163 9.71462 0.495062 9.8949 0.301814C10.0752 0.108566 10.3197 0 10.5747 0H16.3427C16.5976 0 16.8421 0.108566 17.0224 0.301814C17.2027 0.495062 17.304 0.757163 17.304 1.03046V7.2132C17.304 7.48649 17.2027 7.74859 17.0224 7.94184C16.8421 8.13509 16.5976 8.24366 16.3427 8.24366C16.0877 8.24366 15.8432 8.13509 15.6629 7.94184C15.4826 7.74859 15.3813 7.48649 15.3813 7.2132V3.51798L6.44766 13.094C6.26635 13.2817 6.02352 13.3856 5.77146 13.3832C5.5194 13.3809 5.27829 13.2725 5.10005 13.0815C4.92181 12.8904 4.82071 12.632 4.81852 12.3618C4.81633 12.0916 4.91322 11.8313 5.08834 11.6369L14.022 2.06091H10.5747ZM0 4.12183C0 3.57524 0.202566 3.05104 0.563136 2.66454C0.923706 2.27805 1.41274 2.06091 1.92267 2.06091H6.72933C6.9843 2.06091 7.22881 2.16948 7.4091 2.36273C7.58938 2.55598 7.69067 2.81808 7.69067 3.09137C7.69067 3.36466 7.58938 3.62677 7.4091 3.82001C7.22881 4.01326 6.9843 4.12183 6.72933 4.12183H1.92267V16.4873H13.4587V11.335C13.4587 11.0617 13.5599 10.7996 13.7402 10.6064C13.9205 10.4131 14.165 10.3046 14.42 10.3046C14.675 10.3046 14.9195 10.4131 15.0998 10.6064C15.2801 10.7996 15.3813 11.0617 15.3813 11.335V16.4873C15.3813 17.0339 15.1788 17.5581 14.8182 17.9446C14.4576 18.3311 13.9686 18.5482 13.4587 18.5482H1.92267C1.41274 18.5482 0.923706 18.3311 0.563136 17.9446C0.202566 17.5581 0 17.0339 0 16.4873V4.12183Z" fill="white"/>
</svg>
